<svg width="35" height="35" viewBox="0 0 35 35" fill="none" xmlns="http://www.w3.org/2000/svg">
    <path fill-rule="evenodd" clip-rule="evenodd"
        d="M17.5 0C27.1657 0 35 7.83434 35 17.5C35 27.1657 27.1657 35 17.5 35C7.83434 35 0 27.1657 0 17.5C0 7.83434 7.83434 0 17.5 0Z"
        fill="#F0B90B"></path>
    <path
        d="M9.61799 17.5002L9.63061 22.1276L13.5625 24.4413V27.1505L7.32953 23.4948V16.1471L9.61799 17.5002ZM9.61799 12.8728V15.5693L7.32812 14.2148V11.5183L9.61799 10.1637L11.9191 11.5183L9.61799 12.8728ZM15.2045 11.5183L17.4944 10.1637L19.7955 11.5183L17.4944 12.8728L15.2045 11.5183Z"
        fill="white"></path>
    <path
        d="M11.2734 21.1685V18.4594L13.5633 19.8139V22.5105L11.2734 21.1685ZM15.2053 25.4117L17.4952 26.7663L19.7963 25.4117V28.1082L17.4952 29.4628L15.2053 28.1082V25.4117ZM23.0803 11.5183L25.3702 10.1637L27.6713 11.5183V14.2148L25.3702 15.5693V12.8728L23.0803 11.5183ZM25.3702 22.1276L25.3828 17.5002L27.6727 16.1457V23.4934L21.4397 27.1491V24.4399L25.3702 22.1276Z"
        fill="white"></path>
    <path d="M23.7313 21.1681L21.4414 22.5101V19.8136L23.7313 18.459V21.1681Z" fill="white"></path>
    <path
        d="M23.7282 13.8316L23.7408 16.5408L19.7977 18.8545V23.4931L17.5078 24.835L15.2179 23.4931V18.8545L11.2748 16.5408V13.8316L13.5745 12.4771L17.4938 14.802L21.4369 12.4771L23.738 13.8316H23.7282ZM11.2734 9.20562L17.4952 5.53735L23.7282 9.20562L21.4383 10.5602L17.4952 8.23527L13.5633 10.5602L11.2734 9.20562Z"
        fill="white"></path>
</svg>