<svg width="35" height="35" viewBox="0 0 35 35" fill="none" xmlns="http://www.w3.org/2000/svg">
    <path
        d="M17.5 35C27.165 35 35 27.165 35 17.5C35 7.83502 27.165 0 17.5 0C7.83502 0 0 7.83502 0 17.5C0 27.165 7.83502 35 17.5 35Z"
        fill="#26A17B"></path>
    <path fill-rule="evenodd" clip-rule="evenodd"
        d="M19.5983 19.0126V19.0104C19.478 19.0192 18.8578 19.0564 17.4742 19.0564C16.3695 19.0564 15.5919 19.0236 15.3184 19.0104V19.0137C11.0659 18.8267 7.89187 18.0862 7.89187 17.2003C7.89187 16.3154 11.0659 15.575 15.3184 15.3847V18.2765C15.5962 18.2962 16.3925 18.3433 17.4928 18.3433C18.813 18.3433 19.4747 18.2886 19.5983 18.2776V15.3868C23.842 15.5761 27.0084 16.3165 27.0084 17.2003C27.0084 18.0862 23.842 18.8245 19.5983 19.0126ZM19.5983 15.0861V12.4983H25.5198V8.552H9.39688V12.4983H15.3184V15.085C10.5059 15.3059 6.88672 16.2597 6.88672 17.4015C6.88672 18.5434 10.5059 19.4961 15.3184 19.7181V28.0109H19.5983V19.7159C24.4031 19.495 28.0136 18.5423 28.0136 17.4015C28.0136 16.2608 24.4031 15.3081 19.5983 15.0861Z"
        fill="white"></path>
</svg>